<?xml version="1.0" encoding="iso-8859-1"?>
<!-- Generator: Adobe Illustrator 19.0.0, SVG Export Plug-In . SVG Version: 6.00 Build 0)  -->
<svg version="1.1" id="Capa_1" xmlns="http://www.w3.org/2000/svg" xmlns:xlink="http://www.w3.org/1999/xlink" x="0px" y="0px"
	 viewBox="0 0 495.8 495.8" style="enable-background:new 0 0 495.8 495.8;" xml:space="preserve">
<path id="SVGCleanerId_0" style="fill:#FF9100;" d="M279.9,482l202.4-202.4c17.6-17.6,17.6-46.4,0-64L279.9,13.2
	c-17.6-17.6-46.4-17.6-64,0L13.5,215.6c-17.6,17.6-17.6,46.4,0,64L215.9,482C233.5,500.4,262.3,500.4,279.9,482z"/>
<g>
	<path id="SVGCleanerId_0_1_" style="fill:#FF9100;" d="M279.9,482l202.4-202.4c17.6-17.6,17.6-46.4,0-64L279.9,13.2
		c-17.6-17.6-46.4-17.6-64,0L13.5,215.6c-17.6,17.6-17.6,46.4,0,64L215.9,482C233.5,500.4,262.3,500.4,279.9,482z"/>
</g>
<g>
	
		<rect x="196.513" y="269.872" transform="matrix(-0.7071 0.7071 -0.7071 -0.7071 752.6569 391.1808)" style="fill:#F16823;" width="197.598" height="163.198"/>
	<path style="fill:#F16823;" d="M482.3,279.6c17.6-17.6,17.6-46.4,0-64L279.9,13.2c-17.6-17.6-46.4-17.6-64,0L13.5,215.6
		c-17.6,17.6-17.6,46.4,0,64"/>
</g>
<path style="fill:#E84E0A;" d="M355.9,139.6L145.5,350c26.4,23.2,60,36.8,97.6,36.8c82.4,0,148.8-67.2,148.8-149.6
	C391.9,200.4,378.3,166,355.9,139.6z"/>
<path style="fill:#07A8EF;" d="M381.5,114L279.9,13.2c-17.6-17.6-46.4-17.6-64,0L13.5,215.6c-17.6,17.6-17.6,46.4,0,64l101.6,101.6
	L381.5,114z"/>
<path style="fill:#0086D1;" d="M13.5,279.6l101.6,101.6L382.3,114L279.9,13.2c-17.6-17.6-46.4-17.6-64,0"/>
<path style="fill:#0063A6;" d="M114.3,381.2L381.5,114L279.9,13.2c-17.6-17.6-46.4-17.6-64,0"/>
<path id="SVGCleanerId_1" style="fill:#FFFFFF;" d="M350.3,268.4c-8,40-43.2,74.4-86.4,79.2c-17.6,1.6-33.6-0.8-48.8-7.2
	c-2.4,2.4-32,32-35.2,35.2c25.6,15.2,56.8,23.2,88.8,20c54.4-5.6,99.2-41.6,120-88.8L350.3,268.4z"/>
<g>
	<path id="SVGCleanerId_1_1_" style="fill:#FFFFFF;" d="M350.3,268.4c-8,40-43.2,74.4-86.4,79.2c-17.6,1.6-33.6-0.8-48.8-7.2
		c-2.4,2.4-32,32-35.2,35.2c25.6,15.2,56.8,23.2,88.8,20c54.4-5.6,99.2-41.6,120-88.8L350.3,268.4z"/>
</g>
<path style="fill:#CBE4EF;" d="M387.9,306l-33.6-34.4c-1.6,2.4-4,4.8-6.4,6.4c-11.2,36-44,65.6-84,69.6c-14.4,1.6-28,0-40.8-4.8
	c21.6,8.8,46.4,13.6,71.2,10.4C331.9,350,364.7,331.6,387.9,306z"/>
<g>
	<path style="fill:#FFFFFF;" d="M150.3,353.2c5.6,5.6,11.2,10.4,17.6,15.2l204.8-204.8c-4.8-6.4-9.6-12-15.2-17.6L150.3,353.2z"/>
	<path style="fill:#FFFFFF;" d="M348.7,138c-7.2-5.6-12.8-10.4-19.2-14.4c-26.4-16-57.6-24-90.4-20.8c-80.8,8-139.2,80-131.2,160.8
		c2.4,24.8,10.4,45.6,22.4,64.8c3.2,5.6,12,16,12,16L348.7,138z M247.9,150c16.8-1.6,33.6,0.8,48,7.2L166.3,286.8
		c-4-8.8-6.4-18.4-7.2-28C154.3,204.4,193.5,155.6,247.9,150z"/>
</g>
<g>
	<path style="fill:#CBE4EF;" d="M107.9,263.6c2.4,24.8,10.4,45.6,22.4,64.8c3.2,5.6,12,16,12,16L348.7,138
		c-7.2-5.6-12.8-10.4-19.2-14.4c-26.4-16-57.6-24-90.4-20.8 M247.9,150c16.8-1.6,33.6,0.8,48,7.2L166.3,286.8
		c-4-8.8-6.4-18.4-7.2-28C154.3,204.4,193.5,155.6,247.9,150z"/>
	<path style="fill:#CBE4EF;" d="M185.5,318.8c5.6,5.6,12,10.4,19.2,14.4l168.8-168.8c-4.8-6.4-9.6-12-15.2-17.6L185.5,318.8z"/>
</g>
<g>
</g>
<g>
</g>
<g>
</g>
<g>
</g>
<g>
</g>
<g>
</g>
<g>
</g>
<g>
</g>
<g>
</g>
<g>
</g>
<g>
</g>
<g>
</g>
<g>
</g>
<g>
</g>
<g>
</g>
</svg>
